<svg xmlns="http://www.w3.org/2000/svg" xmlns:xlink="http://www.w3.org/1999/xlink" version="1.1" x="0px" y="0px" viewBox="0 0 100 125" enable-background="new 0 0 100 100" xml:space="preserve">
	<path fill="#000000" d="M32.2,32.913l-13.502,13.88l31.246,36.436l31.248-36.436L67.69,32.913H32.2z M66.007,34.81l-3.605,11.768  L52.042,34.81H66.007z M61.72,48.673l-0.025,0.064c-3.46,0.263-7.37,0.438-11.751,0.438c-4.38,0-8.29-0.175-11.749-0.438  l-0.025-0.064l11.774-13.376L61.72,48.673z M47.847,34.81L37.488,46.577L33.883,34.81H47.847z M32.162,35.671l3.949,12.891  c-7.174-0.656-12.033-1.67-14.32-2.231L32.162,35.671z M22.651,48.49c2.801,0.628,7.564,1.502,14.208,2.056l10.208,26.417  L22.651,48.49z M38.954,50.7c3.272,0.225,6.923,0.371,10.99,0.371c4.068,0,7.719-0.147,10.992-0.371L49.944,79.143L38.954,50.7z   M52.821,76.963l10.21-26.417c6.644-0.554,11.407-1.428,14.208-2.056L52.821,76.963z M78.099,46.332  c-2.287,0.56-7.146,1.575-14.319,2.231l3.949-12.891L78.099,46.332z M94.873"/>
</svg>